<svg width="26" height="14" viewBox="0 0 26 14" fill="none" xmlns="http://www.w3.org/2000/svg">
<g opacity="0.5">
<path d="M19.329 1.389C19.4046 1.31345 19.4645 1.22375 19.5054 1.12503C19.5463 1.02631 19.5673 0.920508 19.5673 0.813657C19.5673 0.706806 19.5463 0.601002 19.5054 0.502284C19.4645 0.403567 19.4046 0.31387 19.329 0.238315C19.2535 0.162759 19.1638 0.102826 19.065 0.061936C18.9663 0.0210459 18.8605 0 18.7537 0C18.6468 0 18.541 0.0210459 18.4423 0.061936C18.3436 0.102826 18.2539 0.162759 18.1783 0.238315L7.37683 11.0414L2.26376 5.92673C2.1882 5.85118 2.0985 5.79124 1.99979 5.75035C1.90107 5.70946 1.79526 5.68842 1.68841 5.68842C1.47262 5.68842 1.26566 5.77414 1.11307 5.92673C0.96048 6.07932 0.874756 6.28628 0.874756 6.50207C0.874756 6.71787 0.96048 6.92483 1.11307 7.07742L6.80149 12.7658C6.87697 12.8415 6.96665 12.9016 7.06537 12.9425C7.1641 12.9835 7.26994 13.0046 7.37683 13.0046C7.48372 13.0046 7.58956 12.9835 7.68829 12.9425C7.78701 12.9016 7.87669 12.8415 7.95217 12.7658L19.329 1.389ZM12.4899 12.7658L11.0337 11.308L12.1827 10.1589L13.0652 11.0414L23.8667 0.238315C24.0193 0.0857242 24.2263 -5.08431e-09 24.4421 0C24.6579 5.08431e-09 24.8648 0.0857242 25.0174 0.238315C25.17 0.390905 25.2557 0.597862 25.2557 0.813657C25.2557 1.02945 25.17 1.23641 25.0174 1.389L13.6406 12.7658C13.5651 12.8415 13.4754 12.9016 13.3767 12.9425C13.278 12.9835 13.1721 13.0046 13.0652 13.0046C12.9584 13.0046 12.8525 12.9835 12.7538 12.9425C12.6551 12.9016 12.5654 12.8415 12.4899 12.7658Z" fill="white"/>
<path d="M7.95223 5.92673L9.40847 7.38459L8.25941 8.53365L6.80155 7.07742C6.64896 6.92483 6.56323 6.71787 6.56323 6.50207C6.56323 6.28628 6.64896 6.07932 6.80155 5.92673C6.95414 5.77414 7.16109 5.68842 7.37689 5.68842C7.59269 5.68842 7.79964 5.77414 7.95223 5.92673Z" fill="white"/>
</g>
</svg>
