<svg width="18" height="18" viewBox="0 0 18 18" fill="none" xmlns="http://www.w3.org/2000/svg">
<g opacity="0.5">
<path d="M13.1128 18C13.3518 18.0013 13.5886 17.9551 13.8095 17.864C14.0304 17.7728 14.231 17.6386 14.3994 17.4691L16.8376 15.0309C17.0052 14.8624 17.0992 14.6343 17.0992 14.3966C17.0992 14.159 17.0052 13.9309 16.8376 13.7624L13.2388 10.1635C13.0702 9.99598 12.8422 9.90192 12.6045 9.90192C12.3668 9.90192 12.1388 9.99598 11.9702 10.1635L10.5307 11.5941C9.53405 11.3283 8.61101 10.8391 7.83159 10.1635C7.15782 9.38288 6.66884 8.46028 6.40106 7.46444L7.83159 6.02492C7.99916 5.85635 8.09321 5.62832 8.09321 5.39063C8.09321 5.15294 7.99916 4.92491 7.83159 4.75634L4.23278 1.15753C4.06421 0.989961 3.83618 0.895905 3.59849 0.895905C3.3608 0.895905 3.13277 0.989961 2.9642 1.15753L0.535005 3.60472C0.36553 3.77318 0.231306 3.97371 0.140167 4.19461C0.0490284 4.4155 0.00280016 4.65234 0.00418041 4.89129C0.085804 8.34821 1.46716 11.6474 3.8729 14.1312C6.35672 16.537 9.65592 17.9183 13.1128 18ZM3.60299 3.0739L5.93322 5.40413L4.7726 6.56474C4.66268 6.66771 4.58036 6.79663 4.5332 6.93967C4.48604 7.08272 4.47555 7.23532 4.50269 7.38347C4.83897 8.88631 5.55094 10.2793 6.57201 11.4321C7.72395 12.4545 9.11729 13.1667 10.6207 13.5014C10.7666 13.5319 10.9178 13.5257 11.0607 13.4833C11.2036 13.4409 11.3337 13.3637 11.4394 13.2585L12.6 12.0709L14.9302 14.4011L13.1308 16.2006C10.1472 16.1237 7.30032 14.933 5.15048 12.8627C3.07478 10.7119 1.88061 7.86131 1.80358 4.8733L3.60299 3.0739ZM16.1988 8.10323H17.9982C18.0216 7.03348 17.8281 5.97009 17.4294 4.97713C17.0307 3.98418 16.4351 3.08221 15.6785 2.32561C14.9219 1.56901 14.02 0.973421 13.027 0.574752C12.034 0.176083 10.9706 -0.0174176 9.9009 0.00591286V1.80532C10.7357 1.77644 11.5676 1.91959 12.3448 2.22587C13.1219 2.53215 13.8278 2.99501 14.4185 3.58568C15.0091 4.17636 15.472 4.88221 15.7783 5.65938C16.0845 6.43654 16.2277 7.26839 16.1988 8.10323Z" fill="white"/>
<path d="M9.90088 5.40408C11.7903 5.40408 12.6 6.21381 12.6 8.10319H14.3994C14.3994 5.20614 12.7979 3.60468 9.90088 3.60468V5.40408Z" fill="white"/>
</g>
</svg>
