<svg width="19" height="24" viewBox="0 0 19 24" fill="none"
    xmlns="http://www.w3.org/2000/svg">
    <path d="M9.78572 13.6752C8.95735 13.6752 8.14758 13.4296 7.45882 12.9693C6.77006 12.5091 6.23323 11.855 5.91623 11.0897C5.59923 10.3244 5.51628 9.48224 5.67789 8.66979C5.8395 7.85734 6.2384 7.11106 6.82414 6.52531C7.40988 5.93957 8.15617 5.54067 8.96862 5.37906C9.78107 5.21746 10.6232 5.3004 11.3885 5.6174C12.1538 5.9344 12.8079 6.47123 13.2682 7.15999C13.7284 7.84875 13.974 8.65852 13.974 9.48689C13.9727 10.5973 13.531 11.6618 12.7458 12.447C11.9607 13.2322 10.8961 13.6739 9.78572 13.6752ZM9.78572 6.97391C9.2887 6.97391 8.80284 7.12129 8.38958 7.39742C7.97632 7.67355 7.65423 8.06602 7.46402 8.52521C7.27382 8.9844 7.22406 9.48968 7.32102 9.97715C7.41798 10.4646 7.65732 10.9124 8.00877 11.2638C8.36022 11.6153 8.80799 11.8546 9.29546 11.9516C9.78293 12.0485 10.2882 11.9988 10.7474 11.8086C11.2066 11.6184 11.5991 11.2963 11.8752 10.883C12.1513 10.4698 12.2987 9.98391 12.2987 9.48689C12.298 8.82061 12.0331 8.18181 11.5619 7.71068C11.0908 7.23955 10.452 6.97457 9.78572 6.97391Z" fill="white"/>
    <path d="M9.78581 23.7272L2.7193 15.3933C2.62111 15.2682 2.52394 15.1422 2.4278 15.0155C1.22071 13.4255 0.568617 11.4833 0.571543 9.48697C0.571543 7.04319 1.54233 4.69951 3.27034 2.9715C4.99835 1.24349 7.34203 0.272705 9.78581 0.272705C12.2296 0.272705 14.5733 1.24349 16.3013 2.9715C18.0293 4.69951 19.0001 7.04319 19.0001 9.48697C19.003 11.4824 18.3512 13.4237 17.1447 15.013L17.1438 15.0155C17.1438 15.0155 16.8925 15.3456 16.8548 15.39L9.78581 23.7272ZM3.7647 14.0061C3.76638 14.0061 3.96072 14.2641 4.00511 14.3194L9.78581 21.1371L15.574 14.3102C15.6109 14.2641 15.8069 14.0045 15.8077 14.0036C16.7938 12.7045 17.3267 11.1179 17.3248 9.48697C17.3248 7.48752 16.5305 5.56996 15.1166 4.15613C13.7028 2.74231 11.7853 1.94803 9.78581 1.94803C7.78636 1.94803 5.8688 2.74231 4.45497 4.15613C3.04114 5.56996 2.24686 7.48752 2.24686 9.48697C2.24511 11.1189 2.77859 12.7064 3.76554 14.0061H3.7647Z" fill="white"/>
</svg>
