<svg width="17" height="21" viewBox="0 0 17 21" fill="none" xmlns="http://www.w3.org/2000/svg">
<path opacity="0.5" fill-rule="evenodd" clip-rule="evenodd" d="M2.125 10.5V19.95C2.125 20.2285 2.01306 20.4955 1.8138 20.6925C1.61454 20.8894 1.34429 21 1.0625 21C0.780707 21 0.510457 20.8894 0.311199 20.6925C0.111942 20.4955 0 20.2285 0 19.95V2.1C0 0.945 0.95625 0 2.125 0H8.5C9.66875 0 10.6239 0.945 10.6239 2.1H14.875C15.4386 2.1 15.9791 2.32125 16.3776 2.71508C16.7761 3.1089 17 3.64305 17 4.2V10.5C17 11.057 16.7761 11.5911 16.3776 11.9849C15.9791 12.3787 15.4386 12.6 14.875 12.6H9.5625C8.99947 12.5992 8.45978 12.3775 8.06196 11.9838C7.66413 11.5901 7.44069 11.0564 7.44069 10.5H2.125ZM2.125 2.1V8.4H9.5625V10.5H14.8771V4.2H8.5V2.1H2.125Z" fill="white"/>
</svg>
