<svg width="20" height="16" viewBox="0 0 20 16" fill="none" xmlns="http://www.w3.org/2000/svg">
<g opacity="0.5">
<path d="M19.1667 2.66667H16.4333C16.1 1.13333 14.7667 0 13.1667 0C11.5667 0 10.2333 1.13333 9.9 2.66667H0.5V4H9.9C10.2333 5.53333 11.5667 6.66667 13.1667 6.66667C14.7667 6.66667 16.1 5.53333 16.4333 4H19.1667V2.66667ZM13.1667 5.33333C12.0333 5.33333 11.1667 4.46667 11.1667 3.33333C11.1667 2.2 12.0333 1.33333 13.1667 1.33333C14.3 1.33333 15.1667 2.2 15.1667 3.33333C15.1667 4.46667 14.3 5.33333 13.1667 5.33333Z" fill="white"/>
<path d="M0.5 13.3333H3.23333C3.56667 14.8666 4.9 15.9999 6.5 15.9999C8.1 15.9999 9.43333 14.8666 9.76667 13.3333H19.1667V11.9999H9.76667C9.43333 10.4666 8.1 9.33325 6.5 9.33325C4.9 9.33325 3.56667 10.4666 3.23333 11.9999H0.5V13.3333ZM6.5 10.6666C7.63333 10.6666 8.5 11.5333 8.5 12.6666C8.5 13.7999 7.63333 14.6666 6.5 14.6666C5.36667 14.6666 4.5 13.7999 4.5 12.6666C4.5 11.5333 5.36667 10.6666 6.5 10.6666Z" fill="white"/>
</g>
</svg>
